<?xml version="1.0" standalone="no"?>
<!DOCTYPE svg PUBLIC "-//W3C//DTD SVG 20010904//EN"
 "http://www.w3.org/TR/2001/REC-SVG-20010904/DTD/svg10.dtd">
<svg version="1.0" xmlns="http://www.w3.org/2000/svg"
 width="400.000000pt" height="400.000000pt" viewBox="0 0 400.000000 400.000000"
 preserveAspectRatio="xMidYMid meet">
<metadata>
Created by potrace 1.11, written by Peter Selinger 2001-2013
</metadata>
<g transform="translate(0.000000,400.000000) scale(0.100000,-0.100000)"
fill="#000000" stroke="none">
<path d="M1825 3992 c-160 -13 -411 -73 -569 -137 -521 -210 -934 -633 -1129
-1156 -33 -87 -71 -211 -83 -271 -2 -13 -7 -36 -10 -53 -24 -116 -31 -229 -28
-415 2 -113 5 -216 7 -230 3 -14 10 -52 17 -85 6 -33 14 -73 17 -89 10 -57 65
-232 100 -316 185 -449 523 -815 951 -1029 159 -79 327 -141 457 -167 11 -2
56 -11 100 -20 110 -23 514 -28 638 -8 668 105 1223 515 1513 1119 137 284
195 557 189 890 -3 185 -7 238 -20 305 -3 14 -8 39 -11 55 -2 17 -16 73 -30
125 -206 786 -880 1373 -1694 1475 -59 8 -350 13 -415 7z m361 -86 c164 -15
385 -68 509 -121 17 -7 59 -26 95 -41 248 -107 534 -329 710 -551 201 -254
358 -611 396 -898 3 -27 8 -61 10 -75 9 -52 11 -348 3 -410 -16 -128 -19 -146
-35 -225 -38 -188 -160 -478 -270 -640 -156 -232 -362 -434 -587 -576 -178
-112 -436 -214 -647 -255 -14 -3 -32 -7 -40 -9 -44 -13 -165 -20 -330 -20
-215 0 -218 0 -467 49 -12 3 -77 23 -145 46 -539 180 -979 604 -1183 1139
-118 311 -151 675 -94 1011 63 364 245 723 502 989 174 179 348 306 568 410
101 48 310 123 374 134 17 3 51 10 77 16 139 32 374 43 554 27z"/>
<path d="M1838 3765 c-2 -3 -33 -7 -69 -11 -35 -3 -72 -10 -82 -16 -28 -15 -9
-29 32 -23 27 4 38 2 38 -7 1 -27 15 -153 18 -158 2 -3 6 -34 10 -70 7 -70 8
-73 30 -76 18 -3 19 -3 -1 136 -9 63 -17 131 -17 150 -2 33 0 35 31 38 19 2
32 9 32 17 0 15 -14 28 -22 20z"/>
<path d="M1939 3768 c0 -2 -3 -81 -5 -175 -3 -114 -1 -173 6 -173 30 0 27 -8
29 98 l1 73 53 -3 52 -3 0 -80 c0 -56 4 -83 13 -88 8 -5 16 -7 19 -4 2 3 6 85
8 182 3 159 1 176 -14 173 -13 -3 -17 -18 -19 -76 l-3 -72 -54 0 -55 0 0 75
c0 60 -3 75 -15 75 -8 0 -15 -1 -16 -2z"/>
<path d="M2190 3744 c0 -8 11 -60 25 -116 14 -55 24 -107 21 -116 -14 -45 -17
-110 -6 -117 17 -11 27 10 35 74 7 55 13 67 106 208 23 35 25 44 13 53 -11 10
-23 -3 -65 -69 -29 -45 -54 -80 -56 -77 -2 2 -6 16 -9 32 -3 16 -9 43 -13 59
-5 17 -12 42 -15 58 -7 28 -36 38 -36 11z"/>
<path d="M2432 3538 c-29 -90 -52 -166 -52 -170 0 -5 9 -8 20 -8 11 0 19 3 18
8 -2 6 41 142 47 150 1 1 21 -5 45 -13 52 -18 70 -19 70 -2 0 8 -21 20 -47 28
-45 14 -48 18 -46 46 2 17 7 43 13 57 l9 25 53 -16 c67 -20 80 -21 85 -6 3 9
-132 63 -158 63 -3 0 -29 -73 -57 -162z"/>
<path d="M1445 3680 c-4 -6 13 -66 77 -285 6 -22 14 -43 17 -47 3 -4 42 3 86
16 55 16 81 28 83 40 4 18 -5 17 -96 -9 -23 -7 -44 -9 -47 -4 -5 8 -43 134
-76 250 -11 40 -32 59 -44 39z"/>
<path d="M1252 3602 c-9 -7 -9 -27 4 -98 38 -220 48 -259 67 -262 16 -3 18 1
13 25 -20 101 -21 96 26 116 l43 17 32 -37 c18 -21 32 -42 33 -46 0 -4 9 -3
20 3 18 10 11 21 -93 150 -61 76 -116 139 -122 139 -5 0 -16 -3 -23 -7z m82
-112 l47 -59 -30 -16 c-17 -8 -32 -15 -35 -15 -3 0 -15 46 -32 128 -2 12 -3
22 -1 22 2 0 25 -27 51 -60z"/>
<path d="M2713 3580 c-46 -28 -103 -125 -124 -209 -18 -76 45 -138 112 -111
53 23 126 144 136 229 4 40 2 51 -18 74 -31 34 -69 40 -106 17z m82 -37 c23
-22 13 -70 -32 -156 -44 -83 -76 -112 -107 -95 -47 24 -47 51 -1 146 53 111
99 146 140 105z"/>
<path d="M1036 3483 c-37 -25 -65 -50 -63 -57 2 -6 46 -73 96 -149 l91 -137
70 47 c39 26 70 51 70 55 0 21 -26 15 -70 -16 -28 -20 -52 -36 -55 -36 -6 0
-75 103 -75 112 0 4 18 19 40 33 22 14 40 32 40 40 0 21 -9 19 -60 -15 l-44
-29 -28 42 c-15 23 -28 47 -28 52 0 6 23 25 50 43 28 17 50 36 50 41 0 23 -21
17 -84 -26z"/>
<path d="M2932 3448 c-41 -19 -104 -93 -137 -157 -33 -66 -15 -130 43 -152 49
-19 125 41 189 150 28 49 36 119 15 144 -26 31 -67 37 -110 15z m72 -31 c31
-22 22 -64 -29 -138 -71 -104 -113 -130 -150 -92 -31 31 9 123 91 207 37 38
59 44 88 23z"/>
<path d="M866 3362 c-3 -5 17 -34 44 -65 l50 -55 -41 -36 -41 -35 -50 55 c-40
43 -53 52 -64 43 -11 -9 1 -28 64 -98 150 -168 160 -177 174 -163 9 9 6 19
-18 44 -17 18 -43 46 -57 63 l-27 29 33 33 c17 18 37 33 44 33 6 0 36 -27 65
-60 45 -51 54 -58 66 -46 12 12 11 17 -4 33 -11 11 -50 54 -89 97 -128 144
-135 150 -149 128z"/>
<path d="M3137 3333 c-4 -3 -2 -12 3 -18 11 -13 1 -26 -119 -150 -45 -47 -70
-65 -83 -62 -38 10 -30 -18 18 -60 57 -51 80 -59 128 -43 41 13 142 117 163
168 20 47 11 72 -43 126 -46 46 -55 52 -67 39z m72 -89 l21 -27 -27 -49 c-37
-68 -118 -138 -159 -138 -18 0 -38 8 -49 20 -18 19 -16 22 66 106 46 48 90 93
97 100 19 20 28 18 51 -12z"/>
<path d="M2003 2949 c-7 -7 -8 -21 -4 -33 11 -35 5 -69 -27 -153 -39 -103 -45
-169 -17 -197 29 -28 45 -9 45 53 0 39 10 84 30 139 31 86 37 133 20 176 -10
28 -29 33 -47 15z"/>
<path d="M2291 2720 c-10 -6 -15 -28 -16 -67 0 -39 -12 -88 -33 -147 -32 -86
-34 -104 -15 -169 3 -12 12 -17 26 -15 20 3 22 9 22 63 0 43 9 81 30 135 20
51 30 92 29 128 0 57 -19 88 -43 72z"/>
<path d="M1623 2709 c-7 -7 -8 -21 -2 -41 6 -24 1 -53 -27 -137 -19 -58 -35
-123 -35 -143 0 -46 17 -80 39 -76 14 3 17 16 18 63 1 41 10 82 30 130 43 104
40 214 -6 215 -4 0 -11 -5 -17 -11z"/>
<path d="M3560 2327 l-35 -102 -102 -1 c-57 0 -105 -3 -108 -6 -4 -3 9 -16 27
-29 18 -13 35 -26 38 -29 3 -3 23 -18 45 -35 22 -16 43 -33 46 -37 3 -5 -9
-52 -28 -105 -18 -53 -32 -98 -30 -100 2 -2 44 23 92 56 l89 60 50 -37 c28
-20 68 -49 89 -65 20 -16 37 -25 37 -19 0 5 -13 53 -30 107 -16 55 -28 100
-27 100 13 8 177 128 177 130 0 2 -48 3 -107 4 -60 1 -111 5 -115 9 -3 4 -18
48 -33 97 -15 50 -30 93 -34 97 -3 4 -22 -39 -41 -95z"/>
<path d="M391 2321 l-33 -99 -82 0 c-155 0 -147 4 -85 -44 31 -24 70 -54 88
-68 l32 -25 -31 -90 c-17 -49 -29 -95 -28 -102 2 -7 39 12 88 46 l86 59 82
-59 c77 -55 112 -73 97 -49 -8 12 -55 171 -55 186 0 6 36 37 80 68 79 57 97
79 63 75 -10 -1 -57 -1 -105 0 l-86 1 -32 100 c-17 55 -35 100 -38 100 -4 0
-22 -44 -41 -99z"/>
<path d="M1960 2312 c-149 -13 -302 -86 -393 -186 -43 -48 -103 -154 -129
-228 l-23 -68 -78 0 c-120 0 -183 -38 -194 -117 -6 -45 9 -79 59 -134 139
-153 148 -166 153 -210 8 -59 33 -100 75 -122 32 -16 78 -17 574 -16 467 0
544 2 570 16 41 21 64 52 71 93 12 67 14 76 32 95 111 122 176 201 184 222 23
61 -23 144 -89 163 -20 5 -69 10 -108 10 -57 0 -73 3 -78 16 -4 9 -5 18 -4 19
2 2 62 32 135 69 74 37 137 75 143 86 15 28 4 59 -26 72 -20 10 -41 2 -156
-54 l-132 -65 -46 72 c-117 178 -333 285 -540 267z m188 -76 c115 -35 206 -95
273 -182 64 -84 73 -104 52 -119 -22 -17 -29 -12 -53 33 -59 112 -198 209
-326 227 -27 4 -57 9 -66 11 -32 5 -164 -18 -213 -38 -117 -49 -213 -147 -262
-268 -23 -57 -32 -70 -50 -70 -29 0 -29 7 3 88 69 173 229 305 399 329 22 3
42 7 44 9 8 8 155 -7 199 -20z m-52 -97 c67 -16 153 -62 198 -107 41 -39 96
-114 96 -131 0 -9 -39 -27 -44 -19 -1 1 -13 20 -25 40 -34 57 -116 124 -179
149 -59 22 -165 30 -230 16 -96 -21 -201 -107 -247 -202 -22 -44 -32 -55 -52
-55 -21 0 -23 3 -18 23 23 73 94 169 167 222 83 60 232 89 334 64z m27 -122
c56 -24 127 -83 156 -132 l20 -35 -21 -11 c-19 -10 -24 -8 -37 12 -8 13 -34
43 -58 66 -75 74 -204 93 -301 44 -37 -19 -122 -104 -122 -122 0 -5 -13 -9
-30 -9 -34 0 -33 13 9 71 87 121 251 171 384 116z m-23 -108 c34 -20 80 -63
80 -74 0 -14 -55 -3 -83 18 -25 17 -46 22 -94 22 -48 0 -68 -5 -92 -22 -17
-13 -45 -23 -62 -23 l-33 0 30 31 c63 68 183 91 254 48z m653 -197 c4 -1 3
-10 -2 -19 -12 -21 -27 -39 -167 -193 -34 -38 -40 -53 -43 -95 -1 -27 -5 -52
-7 -55 -9 -8 -1040 -8 -1053 0 -7 4 -14 28 -16 53 -4 52 -9 59 -115 176 -95
105 -106 121 -91 130 10 6 1466 8 1494 3z"/>
<path d="M3217 1233 c-14 -13 -6 -24 47 -59 l55 -36 -26 -39 c-14 -21 -30 -39
-34 -39 -5 0 -32 16 -59 35 -46 33 -70 38 -70 15 0 -14 269 -192 280 -185 19
12 10 23 -55 65 -36 23 -65 45 -65 49 0 3 13 23 29 43 l28 37 65 -44 c52 -35
68 -41 77 -31 8 9 -21 34 -124 104 -143 98 -138 95 -148 85z"/>
<path d="M673 1106 c-73 -50 -132 -96 -133 -103 -1 -26 20 -20 78 22 34 25 64
45 67 45 2 0 17 -18 31 -40 15 -22 33 -40 40 -40 21 0 17 13 -16 58 l-29 41
41 30 c23 17 44 31 47 31 4 0 21 -23 40 -50 18 -28 37 -50 42 -50 22 0 14 24
-29 83 l-47 65 -132 -92z"/>
<path d="M3053 1019 c-34 -40 -50 -66 -46 -76 5 -13 10 -11 30 11 13 15 27 26
32 24 5 -2 55 -43 111 -93 56 -49 107 -90 113 -90 30 0 7 29 -93 119 l-111 99
21 22 c11 12 20 27 20 33 0 26 -27 8 -77 -49z"/>
<path d="M862 1009 c-48 -24 -140 -115 -157 -156 -23 -54 18 -113 78 -113 33
0 111 55 160 112 51 60 60 113 24 146 -33 31 -58 34 -105 11z m88 -38 c18 -35
11 -52 -48 -110 -92 -92 -154 -113 -168 -55 -7 26 5 49 54 101 70 75 141 103
162 64z"/>
<path d="M1022 873 c-38 -18 -115 -102 -137 -149 -20 -43 -19 -97 3 -117 48
-44 103 -28 172 50 80 91 100 161 58 200 -33 30 -59 34 -96 16z m80 -48 c15
-34 -3 -71 -71 -146 -56 -63 -80 -74 -110 -52 -40 27 -20 81 62 168 61 64 99
73 119 30z"/>
<path d="M2875 850 c-5 -8 47 -83 75 -110 3 -3 32 -36 64 -75 33 -38 63 -70
67 -70 7 0 48 31 101 77 17 15 24 28 19 36 -5 9 -21 2 -58 -29 -28 -23 -55
-40 -60 -38 -4 2 -42 44 -83 94 -41 49 -82 98 -90 107 -16 20 -26 22 -35 8z"/>
<path d="M1185 790 c-4 -6 -2 -16 3 -23 12 -15 -117 -232 -138 -232 -34 0 -26
-21 18 -49 90 -57 140 -38 209 79 40 67 50 139 23 166 -30 30 -108 70 -115 59z
m81 -75 c18 -19 23 -31 19 -48 -15 -49 -52 -113 -87 -150 -29 -31 -41 -37 -60
-32 -51 16 -50 24 20 142 37 62 71 113 75 113 4 0 19 -11 33 -25z"/>
<path d="M2752 767 c-8 -9 2 -54 40 -170 41 -126 54 -157 69 -157 17 0 17 2
-1 54 l-18 54 37 25 38 26 38 -39 c31 -32 41 -37 53 -28 12 10 -7 33 -109 130
-68 65 -127 118 -130 118 -4 0 -11 -6 -17 -13z m138 -147 c0 -3 -13 -13 -29
-23 l-29 -17 -21 62 c-12 34 -21 66 -21 72 0 6 23 -12 50 -39 28 -27 50 -52
50 -55z"/>
<path d="M2591 679 c-36 -16 -66 -31 -68 -32 -1 -2 28 -71 65 -154 l68 -151
72 31 c40 17 72 37 72 44 0 18 -10 16 -65 -7 -26 -11 -50 -20 -54 -20 -5 0
-20 26 -34 58 l-27 57 45 19 c25 11 45 26 45 33 0 17 -11 16 -62 -4 -27 -11
-43 -13 -45 -6 -2 6 -12 27 -23 48 l-19 37 58 26 c35 16 56 32 54 40 -6 16 -8
16 -82 -19z"/>
<path d="M2458 618 c-2 -6 4 -36 14 -66 10 -31 16 -57 14 -59 -2 -3 -24 -10
-49 -18 l-45 -13 -18 64 c-14 49 -23 64 -37 64 -13 0 -17 -5 -13 -17 19 -60
78 -261 81 -277 6 -25 11 -30 29 -23 12 5 12 14 -4 64 -10 32 -21 65 -25 74
-4 11 2 19 22 27 73 28 70 30 94 -52 17 -58 26 -76 40 -76 17 0 17 4 -2 68
-11 37 -32 109 -46 160 -24 83 -44 113 -55 80z"/>
<path d="M1560 581 c-5 -20 -25 -91 -43 -158 -19 -68 -32 -125 -29 -128 17
-17 32 3 47 66 10 39 23 73 30 75 6 3 31 -1 54 -9 38 -14 59 -8 47 12 -3 5
-26 14 -52 20 -43 11 -45 14 -40 38 4 14 10 39 13 55 4 20 10 27 21 23 50 -19
104 -27 114 -17 13 13 11 14 -84 41 l-68 18 -10 -36z"/>
<path d="M1781 559 c-33 -13 -48 -35 -60 -89 -30 -127 -21 -206 25 -230 88
-47 148 36 148 205 0 64 -12 93 -44 110 -33 17 -36 17 -69 4z m78 -62 c5 -12
7 -26 5 -32 -1 -5 -5 -39 -9 -75 -8 -90 -29 -130 -67 -130 -43 0 -57 40 -46
128 12 93 26 132 52 142 26 10 55 -4 65 -33z"/>
<path d="M1948 498 c-2 -29 -2 -106 0 -170 2 -90 6 -118 17 -118 18 0 22 15
19 91 -1 59 0 65 17 64 13 -1 31 -25 56 -76 20 -41 37 -75 38 -77 1 -1 9 0 18
4 14 5 11 16 -19 76 l-35 69 26 30 c34 41 35 100 0 134 -20 21 -34 25 -79 25
l-55 0 -3 -52z m115 4 c11 -11 15 -29 12 -52 -6 -42 -12 -49 -55 -52 l-34 -3
-3 63 -4 62 34 0 c20 0 41 -7 50 -18z"/>
</g>
</svg>
